#!OML:ASF E:\Style4\Style4.ASF
:FULLY-SPECIFIED
:DEGREES
3598
root 1.11062 17.2803 -1.72113 13.2251 -36.0933 0.833099
lowerback 18.6043 -0.469957 0.611978
upperback 8.53178 -0.670542 1.58219
thorax -1.24774 -0.436162 1.45327
lowerneck -4.102 0.471914 -3.1434
upperneck -10.6964 0.355285 -2.76717
head -2.69176 0.324679 -0.352228
rclavicle 7.95139e-015 1.98785e-014
rhumerus 55.0783 5.97497 -24.3953
rradius 60.8104
rwrist -78.4137
rhand -15.5254 16.3109
rfingers 7.12502
rthumb 10.658 -13.3988
lclavicle 7.95139e-015 1.98785e-014
lhumerus 70.4923 -12.0154 27.653
lradius 64.5347
lwrist 70.7701
lhand 0.841626 29.9956
lfingers 7.12502
lthumb 26.3963 58.178
rfemur -44.7762 10.0644 13.6297
rtibia 40.9347
rfoot -13.2912 5.36378
rtoes -10.4526
lfemur -37.7107 20.5371 -26.5653
ltibia 48.1462
lfoot -27.7407 17.3537
ltoes -11.0052
3599
root 1.1011 17.2748 -1.73061 13.2581 -36.0757 0.735133
lowerback 18.6783 -0.504347 0.582784
upperback 8.60816 -0.72297 1.58211
thorax -1.20242 -0.464472 1.48027
lowerneck -3.97757 0.534914 -3.15054
upperneck -10.8681 0.432735 -2.71552
head -2.77237 0.36652 -0.33686
rclavicle -4.37326e-014 2.34566e-014
rhumerus 54.699 6.12884 -23.9552
rradius 61.2091
rwrist -78.5708
rhand -15.5827 16.3004
rfingers 7.12502
rthumb 10.6027 -13.4122
lclavicle -4.37326e-014 2.34566e-014
lhumerus 70.319 -12.3263 27.5898
lradius 65.0511
lwrist 71.0745
lhand 0.431419 29.9555
lfingers 7.12502
lthumb 26.0035 58.1962
rfemur -44.8271 10.0761 13.795
rtibia 41.0552
rfoot -13.3314 5.24275
rtoes -10.8721
lfemur -37.811 20.6062 -26.4276
ltibia 48.3452
lfoot -27.7445 17.257
ltoes -10.9202
3600
root 1.08968 17.2677 -1.74038 13.3277 -36.1334 0.60901
lowerback 18.762 -0.522552 0.529504
upperback 8.66469 -0.758093 1.56964
thorax -1.18348 -0.484438 1.50486
lowerneck -3.91148 0.627834 -3.11196
upperneck -10.9501 0.553348 -2.70406
head -2.81206 0.427313 -0.342024
rclavicle -3.598e-014 -2.54444e-014
rhumerus 54.3519 6.29862 -23.5366
rradius 61.6366
rwrist -78.7706
rhand -15.5472 16.2106
rfingers 7.12502
rthumb 10.6369 -13.5002
lclavicle -3.598e-014 -2.54444e-014
lhumerus 70.1149 -12.6218 27.5236
lradius 65.558
lwrist 71.3634
lhand 0.106886 29.8965
lfingers 7.12502
lthumb 25.6927 58.1825
rfemur -44.9058 10.1708 13.9567
rtibia 41.1672
rfoot -13.3439 5.22368
rtoes -10.8148
lfemur -37.9307 20.7394 -26.283
ltibia 48.5503
lfoot -27.7726 17.1614
ltoes -10.9122
3601
root 1.0782 17.2579 -1.75155 13.3875 -36.2309 0.545794
lowerback 18.8574 -0.521139 0.371286
upperback 8.69624 -0.783835 1.55778
thorax -1.1962 -0.502116 1.58827
lowerneck -3.89265 0.718389 -3.11213
upperneck -10.9615 0.678003 -2.67127
head -2.81957 0.489454 -0.33328
rclavicle -3.91606e-014 1.90833e-014
rhumerus 54.0438 6.50063 -23.1673
rradius 61.9643
rwrist -78.8193
rhand -15.4319 16.0819
rfingers 7.12502
rthumb 10.7482 -13.6232
lclavicle -3.91606e-014 1.90833e-014
lhumerus 69.9899 -12.862 27.4709
lradius 65.9129
lwrist 71.8265
lhand -0.103153 29.9182
lfingers 7.12502
lthumb 25.4916 58.2332
rfemur -45.0352 10.2252 14.0721
rtibia 41.2848
rfoot -13.351 5.26815
rtoes -10.6681
lfemur -38.0707 20.8451 -26.1982
ltibia 48.7315
lfoot -27.8529 17.1401
ltoes -11.0648
